<svg width="24" height="24" viewBox="0 0 24 24" fill="none" xmlns="http://www.w3.org/2000/svg">
<path d="M3 12L2.06367 11.6489C2.02157 11.7612 2 11.8801 2 12H3ZM14.5937 14.1094L13.7617 13.5547L14.5937 14.1094ZM15.4063 12.8906L16.2383 13.4453L15.4063 12.8906ZM21 12H22C22 11.8801 21.9784 11.7612 21.9363 11.6489L21 12ZM5.51334 5.29775L6.44967 5.64888L6.44967 5.64888L5.51334 5.29775ZM18.4867 5.29775L17.5503 5.64888V5.64888L18.4867 5.29775ZM11.2361 16H12.9296V14H11.2361V16ZM3 13H7.26393V11H3V13ZM8.15836 13.5528L8.55279 14.3416L10.3416 13.4472L9.94721 12.6584L8.15836 13.5528ZM15.4258 14.6641L16.2383 13.4453L14.5742 12.3359L13.7617 13.5547L15.4258 14.6641ZM17.0704 13H21V11H17.0704V13ZM16.2383 13.4453C16.4238 13.1671 16.736 13 17.0704 13V11C16.0673 11 15.1306 11.5013 14.5742 12.3359L16.2383 13.4453ZM7.26393 13C7.6427 13 7.98897 13.214 8.15836 13.5528L9.94721 12.6584C9.43904 11.642 8.40025 11 7.26393 11V13ZM12.9296 16C13.9327 16 14.8694 15.4987 15.4258 14.6641L13.7617 13.5547C13.5762 13.8329 13.264 14 12.9296 14V16ZM11.2361 14C10.8573 14 10.511 13.786 10.3416 13.4472L8.55279 14.3416C9.06096 15.358 10.0998 16 11.2361 16V14ZM20 12V18H22V12H20ZM19 19H5V21H19V19ZM4 18V12H2V18H4ZM3.93633 12.3511L6.44967 5.64888L4.57701 4.94663L2.06367 11.6489L3.93633 12.3511ZM17.5503 5.64888L20.0637 12.3511L21.9363 11.6489L19.423 4.94663L17.5503 5.64888ZM5 19C4.44771 19 4 18.5523 4 18H2C2 19.6569 3.34315 21 5 21V19ZM20 18C20 18.5523 19.5523 19 19 19V21C20.6569 21 22 19.6569 22 18H20ZM7.386 5H16.614V3H7.386V5ZM6.44967 5.64888C6.59604 5.25857 6.96916 5 7.386 5V3C6.13547 3 5.0161 3.77572 4.57701 4.94663L6.44967 5.64888ZM19.423 4.94663C18.9839 3.77572 17.8645 3 16.614 3V5C17.0308 5 17.404 5.25857 17.5503 5.64888L19.423 4.94663Z" fill="#767676"/>
</svg>
