<svg width="30" height="30" viewBox="0 0 30 30" fill="none" xmlns="http://www.w3.org/2000/svg">
<path d="M20 21.1094H19.25C19.25 21.2931 19.3174 21.4704 19.4394 21.6076L20 21.1094ZM20.75 19C20.75 18.5858 20.4142 18.25 20 18.25C19.5858 18.25 19.25 18.5858 19.25 19H20.75ZM20.5644 22.8733C20.8396 23.1829 21.3137 23.2107 21.6233 22.9356C21.9329 22.6604 21.9607 22.1863 21.6856 21.8767L20.5644 22.8733ZM19.5 3.125C19.5 2.71079 19.1642 2.375 18.75 2.375C18.3358 2.375 18 2.71079 18 3.125H19.5ZM18 8.125C18 8.53921 18.3358 8.875 18.75 8.875C19.1642 8.875 19.5 8.53921 19.5 8.125H18ZM12 3.125C12 2.71079 11.6642 2.375 11.25 2.375C10.8358 2.375 10.5 2.71079 10.5 3.125H12ZM10.5 8.125C10.5 8.53921 10.8358 8.875 11.25 8.875C11.6642 8.875 12 8.53921 12 8.125H10.5ZM11.25 15.125C11.6642 15.125 12 14.7892 12 14.375C12 13.9608 11.6642 13.625 11.25 13.625V15.125ZM9.81553 26.4821C10.217 26.5839 10.6251 26.3411 10.727 25.9396C10.8288 25.5381 10.586 25.13 10.1845 25.0281L9.81553 26.4821ZM24.6397 11.9893C24.7029 12.3987 25.0859 12.6794 25.4953 12.6162C25.9047 12.5531 26.1854 12.17 26.1222 11.7607L24.6397 11.9893ZM24.875 21.25C24.875 23.9424 22.6924 26.125 20 26.125V27.625C23.5208 27.625 26.375 24.7708 26.375 21.25H24.875ZM20 26.125C17.3076 26.125 15.125 23.9424 15.125 21.25H13.625C13.625 24.7708 16.4792 27.625 20 27.625V26.125ZM15.125 21.25C15.125 18.5576 17.3076 16.375 20 16.375V14.875C16.4792 14.875 13.625 17.7292 13.625 21.25H15.125ZM20 16.375C22.6924 16.375 24.875 18.5576 24.875 21.25H26.375C26.375 17.7292 23.5208 14.875 20 14.875V16.375ZM20.75 21.1094V19H19.25V21.1094H20.75ZM19.4394 21.6076L20.5644 22.8733L21.6856 21.8767L20.5606 20.6111L19.4394 21.6076ZM18 3.125V8.125H19.5V3.125H18ZM10.5 3.125V8.125H12V3.125H10.5ZM11.25 13.625H4.39667V15.125H11.25V13.625ZM5.125 15.625C5.125 15.2006 5.1319 14.7933 5.14617 14.4024L3.64717 14.3476C3.63216 14.7588 3.625 15.1845 3.625 15.625H5.125ZM5.14617 14.4024C5.27429 10.8913 5.98943 8.81743 7.40559 7.57627C8.8429 6.31657 11.1826 5.75 15 5.75V4.25C11.1249 4.25 8.29304 4.80392 6.41692 6.4482C4.51963 8.11103 3.77938 10.7247 3.64717 14.3476L5.14617 14.4024ZM10.1845 25.0281C8.24512 24.536 7.03519 23.6472 6.27287 22.2354C5.48239 20.7716 5.125 18.6598 5.125 15.625H3.625C3.625 18.727 3.98069 21.1475 4.95301 22.9481C5.95349 24.8009 7.55605 25.9087 9.81553 26.4821L10.1845 25.0281ZM15 5.75C18.3229 5.75 20.5334 6.1789 22.0001 7.12835C23.4156 8.04464 24.2604 9.53034 24.6397 11.9893L26.1222 11.7607C25.704 9.04965 24.7133 7.09785 22.8152 5.86914C20.9683 4.67359 18.387 4.25 15 4.25V5.75Z" fill="#C7C7CC"/>
</svg>
