<svg width="26" height="26" viewBox="0 0 26 26" fill="none" xmlns="http://www.w3.org/2000/svg">
<path d="M9.75 16.5833C9.33579 16.5833 9 16.9191 9 17.3333C9 17.7475 9.33579 18.0833 9.75 18.0833V16.5833ZM16.25 9.41667C16.6642 9.41667 17 9.08088 17 8.66667C17 8.25245 16.6642 7.91667 16.25 7.91667V9.41667ZM12.25 19.5C12.25 19.9142 12.5858 20.25 13 20.25C13.4142 20.25 13.75 19.9142 13.75 19.5H12.25ZM13.75 6.5C13.75 6.08579 13.4142 5.75 13 5.75C12.5858 5.75 12.25 6.08579 12.25 6.5H13.75ZM22 13C22 17.9706 17.9706 22 13 22V23.5C18.799 23.5 23.5 18.799 23.5 13H22ZM13 22C8.02944 22 4 17.9706 4 13H2.5C2.5 18.799 7.20101 23.5 13 23.5V22ZM4 13C4 8.02944 8.02944 4 13 4V2.5C7.20101 2.5 2.5 7.20101 2.5 13H4ZM13 4C17.9706 4 22 8.02944 22 13H23.5C23.5 7.20101 18.799 2.5 13 2.5V4ZM11.9167 7.91667C11.4355 7.91667 10.7305 8.05484 10.1243 8.49135C9.47976 8.9554 9 9.72223 9 10.8333H10.5C10.5 10.2111 10.7425 9.8946 11.0007 9.70865C11.2972 9.49516 11.6756 9.41667 11.9167 9.41667V7.91667ZM9 10.8333C9 11.9444 9.47976 12.7113 10.1243 13.1753C10.7305 13.6118 11.4355 13.75 11.9167 13.75V12.25C11.6756 12.25 11.2972 12.1715 11.0007 11.958C10.7425 11.7721 10.5 11.4556 10.5 10.8333H9ZM11.9167 13.75H14.0833V12.25H11.9167V13.75ZM14.0833 13.75C14.3244 13.75 14.7028 13.8285 14.9993 14.042C15.2575 14.2279 15.5 14.5444 15.5 15.1667H17C17 14.0556 16.5202 13.2887 15.8757 12.8247C15.2695 12.3882 14.5645 12.25 14.0833 12.25V13.75ZM15.5 15.1667C15.5 15.7889 15.2575 16.1054 14.9993 16.2913C14.7028 16.5048 14.3244 16.5833 14.0833 16.5833V18.0833C14.5645 18.0833 15.2695 17.9452 15.8757 17.5087C16.5202 17.0446 17 16.2778 17 15.1667H15.5ZM14.0833 16.5833H13V18.0833H14.0833V16.5833ZM13 16.5833H9.75V18.0833H13V16.5833ZM16.25 7.91667H13V9.41667H16.25V7.91667ZM13 7.91667H11.9167V9.41667H13V7.91667ZM12.25 17.3333V19.5H13.75V17.3333H12.25ZM13.75 8.66667V6.5H12.25V8.66667H13.75Z" fill="#C7C7CC"/>
</svg>
