<svg width="32" height="32" viewBox="0 0 32 32" fill="none" xmlns="http://www.w3.org/2000/svg">
<path d="M16.7507 16C16.7507 15.5858 16.4149 15.25 16.0007 15.25C15.5864 15.25 15.2507 15.5858 15.2507 16H16.7507ZM15.2507 21.3333C15.2507 21.7475 15.5864 22.0833 16.0007 22.0833C16.4149 22.0833 16.7507 21.7475 16.7507 21.3333H15.2507ZM25.4821 25.6296L24.9883 25.0652L25.4821 25.6296ZM6.51917 25.6296L7.01305 25.0652H7.01305L6.51917 25.6296ZM25.4821 9.03704L25.976 8.4726V8.4726L25.4821 9.03704ZM6.51917 9.03704L6.02529 8.4726H6.02529L6.51917 9.03704ZM16.7507 18.6667V16H15.2507V18.6667H16.7507ZM15.2507 18.6667V21.3333H16.7507V18.6667H15.2507ZM16.0007 17.9167C13.383 17.9167 10.8034 17.588 8.9158 16.9555C7.96884 16.6382 7.24656 16.2611 6.77879 15.8521C6.32287 15.4534 6.15368 15.07 6.16533 14.6896L4.66603 14.6437C4.63684 15.5966 5.10368 16.3799 5.79144 16.9813C6.46737 17.5723 7.39643 18.0284 8.43927 18.3778C10.5312 19.0787 13.2849 19.4167 16.0007 19.4167V17.9167ZM16.0007 19.4167C18.7164 19.4167 21.4701 19.0787 23.562 18.3778C24.6049 18.0284 25.5339 17.5723 26.2099 16.9813C26.8976 16.3799 27.3645 15.5966 27.3353 14.6437L25.836 14.6896C25.8476 15.07 25.6784 15.4534 25.2225 15.8521C24.7548 16.2611 24.0325 16.6382 23.0855 16.9555C21.1979 17.588 18.6183 17.9167 16.0007 17.9167V19.4167ZM25.9173 17.3333C25.9173 19.3751 25.7713 21.2822 25.5551 22.732C25.4468 23.4587 25.3232 24.0546 25.1971 24.4887C25.1339 24.7063 25.0744 24.8679 25.023 24.9785C24.9638 25.1058 24.9431 25.1047 24.9883 25.0652L25.976 26.1941C26.1693 26.025 26.2967 25.797 26.3834 25.6104C26.4779 25.407 26.5619 25.1675 26.6375 24.9072C26.7892 24.3852 26.9248 23.7173 27.0387 22.9532C27.2671 21.4215 27.4173 19.4397 27.4173 17.3333H25.9173ZM24.9883 25.0652C25.026 25.0322 25.0093 25.059 24.8477 25.1164C24.7077 25.1662 24.5108 25.2213 24.2545 25.2783C23.7433 25.392 23.0494 25.5018 22.2119 25.5974C20.5399 25.7883 18.3463 25.9167 16.0007 25.9167V27.4167C18.3957 27.4167 20.6466 27.2858 22.382 27.0878C23.2482 26.9889 23.9987 26.8719 24.5802 26.7425C24.8701 26.678 25.1316 26.6075 25.3503 26.5297C25.5476 26.4595 25.7901 26.3567 25.976 26.1941L24.9883 25.0652ZM16.0007 25.9167C13.655 25.9167 11.4614 25.7883 9.7894 25.5974C8.95188 25.5018 8.258 25.392 7.74685 25.2783C7.49046 25.2213 7.29361 25.1662 7.15359 25.1164C6.99205 25.059 6.97533 25.0322 7.01305 25.0652L6.02529 26.1941C6.21115 26.3567 6.4537 26.4595 6.65096 26.5297C6.86973 26.6075 7.13121 26.678 7.42112 26.7425C8.00256 26.8719 8.75312 26.9889 9.61931 27.0878C11.3547 27.2858 13.6056 27.4167 16.0007 27.4167V25.9167ZM7.01305 25.0652C7.05816 25.1047 7.03746 25.1058 6.9783 24.9785C6.92693 24.8679 6.86745 24.7063 6.8042 24.4887C6.6781 24.0546 6.55448 23.4587 6.44616 22.732C6.23004 21.2822 6.08398 19.3751 6.08398 17.3333H4.58398C4.58398 19.4397 4.73422 21.4215 4.96255 22.9532C5.07645 23.7173 5.2121 24.3852 5.36377 24.9072C5.43941 25.1675 5.52345 25.407 5.61791 25.6104C5.70458 25.797 5.83203 26.025 6.02529 26.1941L7.01305 25.0652ZM12.0484 8.87278C13.261 8.7955 14.6045 8.75 16.0007 8.75V7.25C14.5728 7.25 13.1975 7.2965 11.953 7.37581L12.0484 8.87278ZM16.0007 8.75C17.3968 8.75 18.7403 8.7955 19.953 8.87278L20.0484 7.37581C18.8038 7.2965 17.4285 7.25 16.0007 7.25V8.75ZM25.976 8.4726C25.7733 8.2952 25.4956 8.19508 25.3033 8.13406C25.0767 8.0622 24.808 7.9981 24.5247 7.94064C23.956 7.82526 23.2679 7.72464 22.6129 7.64211C21.9552 7.55921 21.3178 7.49294 20.8457 7.44745C20.6094 7.42468 20.4139 7.40705 20.2772 7.3951C20.2088 7.38912 20.1551 7.38455 20.1184 7.38147C20.1 7.37993 20.0858 7.37876 20.0761 7.37796C20.0713 7.37756 20.0676 7.37726 20.065 7.37705C20.0638 7.37695 20.0628 7.37687 20.0621 7.37682C20.0618 7.37679 20.0615 7.37677 20.0613 7.37675C20.0612 7.37674 20.0611 7.37673 20.0611 7.37673C20.061 7.37672 20.0609 7.37672 20.0007 8.12429C19.9404 8.87187 19.9404 8.87187 19.9404 8.87187C19.9404 8.87187 19.9404 8.87187 19.9405 8.87187C19.9406 8.87188 19.9407 8.8719 19.941 8.87192C19.9415 8.87196 19.9423 8.87202 19.9433 8.87211C19.9455 8.87229 19.9488 8.87256 19.9533 8.87292C19.9621 8.87365 19.9755 8.87475 19.993 8.87623C20.0282 8.87917 20.0801 8.88358 20.1465 8.88939C20.2795 8.90102 20.4706 8.91825 20.7019 8.94054C21.165 8.98517 21.7869 9.04986 22.4254 9.13033C23.0668 9.21117 23.712 9.30633 24.2266 9.4107C24.4849 9.46312 24.6954 9.51489 24.8497 9.56383C25.0381 9.62362 25.0429 9.64925 24.9883 9.60147L25.976 8.4726ZM7.01305 9.60147C6.95844 9.64925 6.96319 9.62362 7.15164 9.56383C7.30591 9.51489 7.51635 9.46312 7.77475 9.4107C8.2893 9.30633 8.93452 9.21117 9.57591 9.13033C10.2144 9.04986 10.8363 8.98517 11.2994 8.94054C11.5307 8.91825 11.7218 8.90102 11.8548 8.88939C11.9212 8.88358 11.9731 8.87917 12.0083 8.87623C12.0258 8.87475 12.0392 8.87365 12.048 8.87292C12.0525 8.87256 12.0558 8.87229 12.058 8.87211C12.059 8.87202 12.0598 8.87196 12.0603 8.87192C12.0606 8.8719 12.0607 8.87188 12.0608 8.87187C12.0609 8.87187 12.0609 8.87187 12.0609 8.87187C12.0609 8.87187 12.0609 8.87187 12.0007 8.12429C11.9404 7.37672 11.9403 7.37672 11.9402 7.37673C11.9402 7.37673 11.9401 7.37674 11.94 7.37675C11.9398 7.37677 11.9395 7.37679 11.9392 7.37682C11.9385 7.37687 11.9375 7.37695 11.9363 7.37705C11.9337 7.37726 11.93 7.37756 11.9252 7.37796C11.9155 7.37876 11.9013 7.37993 11.8829 7.38147C11.8462 7.38455 11.7925 7.38912 11.7241 7.3951C11.5874 7.40705 11.3919 7.42468 11.1556 7.44745C10.6835 7.49294 10.0461 7.55921 9.38835 7.64211C8.73345 7.72464 8.04534 7.82526 7.47655 7.94064C7.19328 7.9981 6.92456 8.0622 6.69804 8.13406C6.5057 8.19508 6.22804 8.29519 6.02529 8.4726L7.01305 9.60147ZM6.08398 17.3333C6.08398 16.4248 6.11291 15.5419 6.16425 14.713L4.66712 14.6203C4.6139 15.4795 4.58398 16.3935 4.58398 17.3333H6.08398ZM6.16425 14.713C6.25398 13.2642 6.41149 11.9921 6.59886 11.0443C6.69287 10.5687 6.79121 10.1912 6.88601 9.92033C6.93343 9.7848 6.97535 9.68935 7.00849 9.62733C7.04621 9.55675 7.05298 9.56653 7.01305 9.60147L6.02529 8.4726C5.87022 8.60829 5.76185 8.77755 5.68551 8.92041C5.60459 9.07185 5.53355 9.24382 5.47018 9.42492C5.34338 9.78729 5.22883 10.24 5.12734 10.7534C4.92369 11.7835 4.75975 13.1247 4.66712 14.6203L6.16425 14.713ZM24.9883 9.60147C24.9483 9.56653 24.9551 9.55675 24.9928 9.62734C25.0259 9.68935 25.0679 9.7848 25.1153 9.92033C25.2101 10.1912 25.3084 10.5687 25.4024 11.0443C25.5898 11.9921 25.7473 13.2642 25.8371 14.713L27.3342 14.6203C27.2416 13.1247 27.0776 11.7835 26.874 10.7534C26.7725 10.24 26.6579 9.78729 26.5311 9.42492C26.4678 9.24381 26.3967 9.07185 26.3158 8.92041C26.2395 8.77755 26.1311 8.60829 25.976 8.4726L24.9883 9.60147ZM25.8371 14.713C25.8884 15.5419 25.9173 16.4248 25.9173 17.3333H27.4173C27.4173 16.3935 27.3874 15.4796 27.3342 14.6203L25.8371 14.713ZM20.7507 6.66667C20.7507 5.9561 20.5853 5.34663 20.2612 4.84471C19.9381 4.34433 19.4902 4.00172 19.0064 3.76962C18.0695 3.3201 16.9207 3.25 16.0007 3.25V4.75C16.8975 4.75 17.7487 4.82987 18.3576 5.12201C18.6467 5.26073 18.8581 5.43688 19.0011 5.65837C19.1431 5.87833 19.2507 6.19388 19.2507 6.66667H20.7507ZM16.0007 3.25C15.0806 3.25 13.9318 3.3201 12.9949 3.76962C12.5111 4.00172 12.0632 4.34433 11.7401 4.84471C11.416 5.34663 11.2507 5.9561 11.2507 6.66667H12.7507C12.7507 6.19388 12.8582 5.87833 13.0002 5.65837C13.1432 5.43688 13.3546 5.26073 13.6437 5.12201C14.2526 4.82987 15.1038 4.75 16.0007 4.75V3.25ZM11.2507 6.66667V8.12429H12.7507V6.66667H11.2507ZM19.2507 6.66667V8.12429H20.7507V6.66667H19.2507Z" fill="#C7C7CC"/>
</svg>
